<?xml version="1.0" encoding="UTF-8"?>
<!DOCTYPE svg PUBLIC "-//W3C//DTD SVG 1.1//EN" "http://www.w3.org/Graphics/SVG/1.1/DTD/svg11.dtd">
<!-- Creator: CorelDRAW -->
<svg xmlns="http://www.w3.org/2000/svg" xml:space="preserve" width="29.816mm" height="15.5588mm" version="1.1" style="shape-rendering:geometricPrecision; text-rendering:geometricPrecision; image-rendering:optimizeQuality; fill-rule:evenodd; clip-rule:evenodd"
viewBox="0 0 310.22 161.88"
 xmlns:xlink="http://www.w3.org/1999/xlink"
 xmlns:xodm="http://www.corel.com/coreldraw/odm/2003">
 <defs>
  <style type="text/css">
   <![CDATA[
    .fil0 {fill:#B23A48}
    .fil2 {fill:#FF5500}
    .fil1 {fill:#FF5500;fill-rule:nonzero}
   ]]>
  </style>
 </defs>
 <g id="Capa_x0020_1">
  <metadata id="CorelCorpID_0Corel-Layer"/>
  <g id="_2188612959456">
   <path class="fil0" d="M45.52 28.65c25.14,0 45.53,20.39 45.53,45.52 0,12.75 -5.25,24.29 -13.7,32.55 -5.23,5.12 -7.88,11.41 -7.88,18.73l0 2.91 0 2.35 -20.71 29.76c-0.63,0.9 -1.58,1.4 -2.68,1.4 -1.1,0 -2.05,-0.49 -2.68,-1.4l-20.71 -29.76 0 -2.35 0 -1.84c0,-7.51 -2.8,-13.98 -8.29,-19.12 -8.87,-8.31 -14.41,-20.13 -14.41,-33.24 0,-25.13 20.39,-45.52 45.52,-45.52zm0.45 6.78c21.09,0 38.19,17.33 38.19,38.7 0,11.92 -5.31,22.58 -13.67,29.67 -5.3,4.51 -8.07,10.49 -8.07,17.45l0 6.16 -33.42 0 0 -6.61c0,-6.87 -2.7,-12.78 -7.88,-17.28 -8.17,-7.1 -13.34,-17.63 -13.34,-29.39 0,-21.37 17.1,-38.7 38.19,-38.7zm-13.02 98.77c8.76,0 17.51,0 26.27,0l-7.46 11.06 -11.35 0 -7.46 -11.06z"/>
   <path class="fil0" d="M46.09 20.59l-0 0c-2.09,0 -3.8,-1.71 -3.8,-3.8l0 -12.98c0,-2.09 1.71,-3.8 3.8,-3.8l0 0c2.09,0 3.8,1.71 3.8,3.8l0 12.98c0,2.09 -1.71,3.8 -3.8,3.8z"/>
   <path class="fil0" d="M19.65 29.85l0 0c-1.53,1.43 -3.95,1.34 -5.38,-0.19l-8.85 -9.49c-1.43,-1.53 -1.34,-3.95 0.19,-5.38l0 -0c1.53,-1.42 3.95,-1.34 5.37,0.19l8.85 9.49c1.43,1.53 1.34,3.95 -0.19,5.37z"/>
   <path class="fil0" d="M72.52 29.85l0 0c1.53,1.43 3.95,1.34 5.37,-0.19l8.85 -9.49c1.43,-1.53 1.34,-3.95 -0.19,-5.38l0 -0c-1.53,-1.42 -3.95,-1.34 -5.38,0.19l-8.85 9.49c-1.43,1.53 -1.34,3.95 0.19,5.37z"/>
   <path class="fil0" d="M39.62 88.47l7.79 -29.06c0.37,-1.37 1.78,-2.18 3.14,-1.82l0.01 0c1.36,0.37 2.18,1.77 1.81,3.14l-7.79 29.06c-0.37,1.37 -1.78,2.18 -3.14,1.82l-0 0c-1.36,-0.37 -2.18,-1.77 -1.81,-3.14z"/>
   <path class="fil0" d="M72.36 77.71l-13.67 10.98c-1.09,0.88 -2.68,0.65 -3.67,-0.35l-0 -0c-0.92,-1.08 -0.76,-2.68 0.34,-3.57l12.9 -10.36 -12.9 -10.36c-1.1,-0.88 -1.26,-2.49 -0.34,-3.57l0 -0c1,-1 2.57,-1.23 3.67,-0.35l13.67 10.98c3.45,2.77 3.33,3.92 0,6.6z"/>
   <path class="fil0" d="M19.63 77.71l13.67 10.98c1.09,0.88 2.68,0.65 3.67,-0.35l0 -0c0.92,-1.08 0.76,-2.68 -0.34,-3.57l-12.9 -10.36 12.9 -10.36c1.1,-0.88 1.26,-2.49 0.34,-3.57l-0 -0c-1,-1 -2.57,-1.23 -3.67,-0.35l-13.67 10.98c-3.45,2.77 -3.33,3.92 0,6.6z"/>
   <path class="fil1" d="M110.24 113.22l14.31 0 0 8.43 -25.24 0 0 -44.85 10.93 0 0 36.42zm30.28 -36.42l0 26.84c0,2.68 0.66,4.75 1.98,6.2 1.32,1.45 3.26,2.17 5.82,2.17 2.56,0 4.51,-0.73 5.88,-2.17 1.36,-1.45 2.04,-3.51 2.04,-6.2l0 -26.84 10.93 0 0 26.77c0,4 -0.85,7.39 -2.56,10.16 -1.71,2.77 -3.99,4.86 -6.87,6.26 -2.87,1.4 -6.08,2.11 -9.61,2.11 -3.54,0 -6.7,-0.69 -9.49,-2.08 -2.79,-1.38 -4.99,-3.47 -6.61,-6.26 -1.62,-2.79 -2.43,-6.19 -2.43,-10.19l0 -26.77 10.92 0zm85.11 0l0 44.85 -10.93 0 0 -26.9 -10.03 26.9 -8.82 0 -10.1 -26.96 0 26.96 -10.93 0 0 -44.85 12.91 0 12.59 31.05 12.46 -31.05 12.84 0zm18.79 8.75l0 9.07 14.63 0 0 8.43 -14.63 0 0 9.84 16.55 0 0 8.75 -27.47 0 0 -44.85 27.47 0 0 8.75 -16.55 0zm51.56 28.18l-16.74 0 -2.68 7.92 -11.44 0 16.23 -44.85 12.65 0 16.23 44.85 -11.56 0 -2.68 -7.92zm-2.81 -8.43l-5.56 -16.42 -5.49 16.42 11.05 0z"/>
   <path class="fil1" d="M108.69 160.72c-1.76,0 -3.33,-0.29 -4.73,-0.86 -1.39,-0.57 -2.51,-1.42 -3.34,-2.53 -0.83,-1.12 -1.27,-2.47 -1.32,-4.04l6.23 0c0.09,0.89 0.4,1.57 0.93,2.04 0.52,0.47 1.21,0.7 2.05,0.7 0.87,0 1.55,-0.2 2.06,-0.6 0.5,-0.4 0.75,-0.95 0.75,-1.66 0,-0.59 -0.2,-1.08 -0.6,-1.47 -0.4,-0.39 -0.89,-0.71 -1.47,-0.96 -0.58,-0.25 -1.41,-0.54 -2.48,-0.86 -1.55,-0.48 -2.82,-0.96 -3.8,-1.44 -0.98,-0.48 -1.83,-1.19 -2.53,-2.12 -0.71,-0.94 -1.06,-2.16 -1.06,-3.66 0,-2.24 0.81,-3.99 2.43,-5.26 1.62,-1.27 3.73,-1.9 6.34,-1.9 2.65,0 4.78,0.63 6.4,1.9 1.62,1.27 2.49,3.03 2.6,5.29l-6.34 0c-0.04,-0.78 -0.33,-1.39 -0.86,-1.83 -0.52,-0.45 -1.2,-0.67 -2.02,-0.67 -0.71,0 -1.28,0.19 -1.71,0.56 -0.43,0.38 -0.65,0.92 -0.65,1.63 0,0.78 0.36,1.38 1.1,1.81 0.73,0.43 1.87,0.9 3.43,1.4 1.55,0.52 2.82,1.03 3.79,1.51 0.97,0.48 1.81,1.17 2.52,2.09 0.71,0.91 1.06,2.09 1.06,3.53 0,1.37 -0.35,2.62 -1.05,3.73 -0.7,1.12 -1.71,2.01 -3.03,2.67 -1.32,0.66 -2.89,0.99 -4.69,0.99zm29.66 -24.29l0 4.69 -6.37 0 0 19.35 -5.86 0 0 -19.35 -6.37 0 0 -4.69 18.6 0zm8.7 0l0 14.39c0,1.44 0.35,2.55 1.06,3.32 0.71,0.78 1.75,1.17 3.12,1.17 1.37,0 2.42,-0.39 3.15,-1.17 0.73,-0.78 1.1,-1.88 1.1,-3.32l0 -14.39 5.86 0 0 14.35c0,2.15 -0.46,3.96 -1.37,5.45 -0.91,1.48 -2.14,2.6 -3.68,3.36 -1.54,0.75 -3.26,1.13 -5.16,1.13 -1.89,0 -3.59,-0.37 -5.09,-1.11 -1.5,-0.74 -2.68,-1.86 -3.54,-3.36 -0.87,-1.5 -1.3,-3.32 -1.3,-5.46l0 -14.35 5.86 0zm27.4 0c2.53,0 4.75,0.5 6.64,1.51 1.9,1.01 3.36,2.41 4.4,4.23 1.04,1.82 1.56,3.91 1.56,6.29 0,2.35 -0.52,4.44 -1.56,6.27 -1.04,1.83 -2.51,3.24 -4.42,4.25 -1.91,1 -4.12,1.51 -6.63,1.51l-9.01 0 0 -24.05 9.01 0zm-0.38 18.98c2.21,0 3.94,-0.61 5.17,-1.82 1.23,-1.21 1.85,-2.92 1.85,-5.14 0,-2.21 -0.61,-3.94 -1.85,-5.17 -1.23,-1.23 -2.96,-1.85 -5.17,-1.85l-2.78 0 0 13.98 2.78 0zm22.13 -18.98l0 24.05 -5.86 0 0 -24.05 5.86 0zm15.62 24.29c-2.26,0 -4.33,-0.52 -6.22,-1.58 -1.88,-1.05 -3.38,-2.52 -4.49,-4.4 -1.11,-1.88 -1.66,-4 -1.66,-6.35 0,-2.35 0.55,-4.46 1.66,-6.34 1.11,-1.87 2.6,-3.33 4.49,-4.38 1.88,-1.05 3.96,-1.58 6.22,-1.58 2.26,0 4.33,0.52 6.22,1.58 1.88,1.05 3.37,2.51 4.45,4.38 1.08,1.87 1.63,3.98 1.63,6.34 0,2.35 -0.55,4.47 -1.64,6.35 -1.1,1.88 -2.58,3.35 -4.45,4.4 -1.87,1.05 -3.94,1.58 -6.2,1.58zm0 -5.34c1.92,0 3.45,-0.64 4.61,-1.92 1.15,-1.28 1.73,-2.97 1.73,-5.07 0,-2.12 -0.58,-3.82 -1.73,-5.09 -1.15,-1.27 -2.69,-1.9 -4.61,-1.9 -1.94,0 -3.49,0.63 -4.64,1.88 -1.15,1.26 -1.73,2.96 -1.73,5.1 0,2.12 0.58,3.82 1.73,5.09 1.15,1.27 2.7,1.9 4.64,1.9z"/>
   <path class="fil2" d="M45.52 28.65c25.14,0 45.53,20.39 45.53,45.52 0,12.75 -5.25,24.29 -13.7,32.55 -5.23,5.12 -7.88,11.41 -7.88,18.73l0 2.91 0 2.35 -20.71 29.76c-0.63,0.9 -1.58,1.4 -2.68,1.4 -1.1,0 -2.05,-0.49 -2.68,-1.4l-20.71 -29.76 0 -2.35 0 -1.84c0,-7.51 -2.8,-13.98 -8.29,-19.12 -8.87,-8.31 -14.41,-20.13 -14.41,-33.24 0,-25.13 20.39,-45.52 45.52,-45.52zm0.45 6.78c21.09,0 38.19,17.33 38.19,38.7 0,11.92 -5.31,22.58 -13.67,29.67 -5.3,4.51 -8.07,10.49 -8.07,17.45l0 6.16 -33.42 0 0 -6.61c0,-6.87 -2.7,-12.78 -7.88,-17.28 -8.17,-7.1 -13.34,-17.63 -13.34,-29.39 0,-21.37 17.1,-38.7 38.19,-38.7zm-13.02 98.77c8.76,0 17.51,0 26.27,0l-7.46 11.06 -11.35 0 -7.46 -11.06z"/>
   <path class="fil2" d="M46.09 20.59l-0 0c-2.09,0 -3.8,-1.71 -3.8,-3.8l0 -12.98c0,-2.09 1.71,-3.8 3.8,-3.8l0 0c2.09,0 3.8,1.71 3.8,3.8l0 12.98c0,2.09 -1.71,3.8 -3.8,3.8z"/>
   <path class="fil2" d="M19.65 29.85l0 0c-1.53,1.43 -3.95,1.34 -5.38,-0.19l-8.85 -9.49c-1.43,-1.53 -1.34,-3.95 0.19,-5.38l0 -0c1.53,-1.42 3.95,-1.34 5.37,0.19l8.85 9.49c1.43,1.53 1.34,3.95 -0.19,5.37z"/>
   <path class="fil2" d="M72.52 29.85l0 0c1.53,1.43 3.95,1.34 5.37,-0.19l8.85 -9.49c1.43,-1.53 1.34,-3.95 -0.19,-5.38l0 -0c-1.53,-1.42 -3.95,-1.34 -5.38,0.19l-8.85 9.49c-1.43,1.53 -1.34,3.95 0.19,5.37z"/>
   <path class="fil2" d="M39.62 88.47l7.79 -29.06c0.37,-1.37 1.78,-2.18 3.14,-1.82l0.01 0c1.36,0.37 2.18,1.77 1.81,3.14l-7.79 29.06c-0.37,1.37 -1.78,2.18 -3.14,1.82l-0 0c-1.36,-0.37 -2.18,-1.77 -1.81,-3.14z"/>
   <path class="fil2" d="M72.36 77.71l-13.67 10.98c-1.09,0.88 -2.68,0.65 -3.67,-0.35l-0 -0c-0.92,-1.08 -0.76,-2.68 0.34,-3.57l12.9 -10.36 -12.9 -10.36c-1.1,-0.88 -1.26,-2.49 -0.34,-3.57l0 -0c1,-1 2.57,-1.23 3.67,-0.35l13.67 10.98c3.45,2.77 3.33,3.92 0,6.6z"/>
   <path class="fil2" d="M19.63 77.71l13.67 10.98c1.09,0.88 2.68,0.65 3.67,-0.35l0 -0c0.92,-1.08 0.76,-2.68 -0.34,-3.57l-12.9 -10.36 12.9 -10.36c1.1,-0.88 1.26,-2.49 0.34,-3.57l-0 -0c-1,-1 -2.57,-1.23 -3.67,-0.35l-13.67 10.98c-3.45,2.77 -3.33,3.92 0,6.6z"/>
  </g>
 </g>
</svg>
