<?xml version="1.0" encoding="UTF-8"?>
<!DOCTYPE svg PUBLIC "-//W3C//DTD SVG 1.1//EN" "http://www.w3.org/Graphics/SVG/1.1/DTD/svg11.dtd">
<!-- Creator: CorelDRAW -->
<svg xmlns="http://www.w3.org/2000/svg" xml:space="preserve" width="10.3679mm" height="18.4318mm" version="1.1" style="shape-rendering:geometricPrecision; text-rendering:geometricPrecision; image-rendering:optimizeQuality; fill-rule:evenodd; clip-rule:evenodd"
viewBox="0 0 52.13 92.68"
 xmlns:xlink="http://www.w3.org/1999/xlink"
 xmlns:xodm="http://www.corel.com/coreldraw/odm/2003">
 <defs>
  <style type="text/css">
   <![CDATA[
    .fil0 {fill:#FF5500}
   ]]>
  </style>
 </defs>
 <g id="Capa_x0020_1">
  <metadata id="CorelCorpID_0Corel-Layer"/>
  <path class="fil0" d="M26.06 16.4c14.39,0 26.07,11.67 26.07,26.06 0,7.3 -3,13.9 -7.84,18.64 -2.99,2.93 -4.51,6.53 -4.51,10.72l0 1.67 0 1.35 -11.86 17.04c-0.36,0.52 -0.9,0.8 -1.53,0.8 -0.63,0 -1.18,-0.28 -1.53,-0.8l-11.86 -17.04 0 -1.35 0 -1.05c0,-4.3 -1.6,-8 -4.74,-10.95 -5.08,-4.76 -8.25,-11.52 -8.25,-19.03 0,-14.39 11.67,-26.06 26.06,-26.06zm0.25 3.88c12.08,0 21.87,9.92 21.87,22.16 0,6.82 -3.04,12.93 -7.83,16.99 -3.04,2.58 -4.62,6.01 -4.62,9.99l0 3.53 -19.13 0 0 -3.79c0,-3.93 -1.54,-7.32 -4.51,-9.89 -4.68,-4.06 -7.64,-10.09 -7.64,-16.83 0,-12.24 9.79,-22.16 21.86,-22.16zm-7.45 56.55c5.01,0 10.03,0 15.04,0l-4.27 6.33 -6.49 0 -4.27 -6.33z"/>
  <path class="fil0" d="M26.39 11.79l-0 0c-1.2,0 -2.18,-0.98 -2.18,-2.18l0 -7.43c0,-1.2 0.98,-2.18 2.18,-2.18l0 0c1.2,0 2.18,0.98 2.18,2.18l0 7.43c0,1.2 -0.98,2.18 -2.18,2.18z"/>
  <path class="fil0" d="M11.25 17.09l-0 0c-0.88,0.82 -2.26,0.77 -3.08,-0.11l-5.07 -5.43c-0.82,-0.88 -0.77,-2.26 0.11,-3.08l0 -0c0.88,-0.82 2.26,-0.77 3.08,0.11l5.07 5.43c0.82,0.88 0.77,2.26 -0.11,3.08z"/>
  <path class="fil0" d="M41.52 17.09l0 0c0.88,0.82 2.26,0.77 3.08,-0.11l5.07 -5.43c0.82,-0.88 0.77,-2.26 -0.11,-3.08l-0 -0c-0.88,-0.82 -2.26,-0.77 -3.08,0.11l-5.07 5.43c-0.82,0.88 -0.77,2.26 0.11,3.08z"/>
  <path class="fil0" d="M22.68 50.65l4.46 -16.64c0.21,-0.78 1.02,-1.25 1.8,-1.04l0 0c0.78,0.21 1.25,1.02 1.04,1.8l-4.46 16.64c-0.21,0.78 -1.02,1.25 -1.8,1.04l-0 0c-0.78,-0.21 -1.25,-1.02 -1.04,-1.8z"/>
  <path class="fil0" d="M41.43 44.49l-7.83 6.29c-0.63,0.5 -1.53,0.37 -2.1,-0.2l-0 -0c-0.52,-0.62 -0.44,-1.54 0.19,-2.04l7.39 -5.93 -7.39 -5.93c-0.63,-0.51 -0.72,-1.42 -0.19,-2.04l0 -0c0.57,-0.57 1.47,-0.7 2.1,-0.2l7.83 6.29c1.98,1.58 1.9,2.25 0,3.78z"/>
  <path class="fil0" d="M11.24 44.49l7.83 6.29c0.63,0.5 1.53,0.37 2.1,-0.2l0 -0c0.52,-0.62 0.44,-1.54 -0.19,-2.04l-7.39 -5.93 7.39 -5.93c0.63,-0.51 0.72,-1.42 0.19,-2.04l-0 -0c-0.57,-0.57 -1.47,-0.7 -2.1,-0.2l-7.83 6.29c-1.98,1.58 -1.9,2.25 0,3.78z"/>
 </g>
</svg>
