<?xml version="1.0" encoding="UTF-8"?>
<!DOCTYPE svg PUBLIC "-//W3C//DTD SVG 1.1//EN" "http://www.w3.org/Graphics/SVG/1.1/DTD/svg11.dtd">
<!-- Creator: CorelDRAW -->
<svg xmlns="http://www.w3.org/2000/svg" xml:space="preserve" width="14.533mm" height="17.6434mm" version="1.1" style="shape-rendering:geometricPrecision; text-rendering:geometricPrecision; image-rendering:optimizeQuality; fill-rule:evenodd; clip-rule:evenodd"
viewBox="0 0 87.2 105.86"
 xmlns:xlink="http://www.w3.org/1999/xlink"
 xmlns:xodm="http://www.corel.com/coreldraw/odm/2003">
 <defs>
  <style type="text/css">
   <![CDATA[
    .fil0 {fill:#FF5500}
    .fil1 {fill:#FF5500;fill-rule:nonzero}
   ]]>
  </style>
 </defs>
 <g id="Capa_x0020_1">
  <metadata id="CorelCorpID_0Corel-Layer"/>
  <g id="_2188612783824">
   <path class="fil0" d="M43.6 11.85c10.4,0 18.83,8.43 18.83,18.82 0,5.27 -2.17,10.04 -5.66,13.46 -2.16,2.11 -3.26,4.72 -3.26,7.74l0 1.2 0 0.97 -8.56 12.3c-0.26,0.37 -0.65,0.58 -1.11,0.58 -0.46,0 -0.85,-0.2 -1.11,-0.58l-8.56 -12.3 0 -0.97 0 -0.76c0,-3.11 -1.16,-5.78 -3.43,-7.91 -3.67,-3.43 -5.96,-8.32 -5.96,-13.74 0,-10.39 8.43,-18.82 18.82,-18.82zm0.18 2.8c8.72,0 15.79,7.16 15.79,16 0,4.93 -2.2,9.34 -5.65,12.27 -2.19,1.86 -3.34,4.34 -3.34,7.22l0 2.55 -13.82 0 0 -2.73c0,-2.84 -1.11,-5.28 -3.26,-7.15 -3.38,-2.93 -5.52,-7.29 -5.52,-12.15 0,-8.84 7.07,-16 15.79,-16zm-5.38 40.84c3.62,0 7.24,0 10.86,0l-3.09 4.57 -4.69 0 -3.09 -4.57z"/>
   <path class="fil0" d="M43.83 8.51l-0 0c-0.87,0 -1.57,-0.71 -1.57,-1.57l0 -5.37c0,-0.87 0.71,-1.57 1.57,-1.57l0 0c0.87,0 1.57,0.71 1.57,1.57l0 5.37c0,0.87 -0.71,1.57 -1.57,1.57z"/>
   <path class="fil0" d="M32.9 12.34l-0 0c-0.63,0.59 -1.63,0.55 -2.22,-0.08l-3.66 -3.92c-0.59,-0.63 -0.56,-1.63 0.08,-2.22l0 0c0.63,-0.59 1.63,-0.56 2.22,0.08l3.66 3.92c0.59,0.63 0.55,1.63 -0.08,2.22z"/>
   <path class="fil0" d="M54.76 12.34l0 0c0.63,0.59 1.63,0.55 2.22,-0.08l3.66 -3.92c0.59,-0.63 0.56,-1.63 -0.08,-2.22l-0 0c-0.63,-0.59 -1.63,-0.56 -2.22,0.08l-3.66 3.92c-0.59,0.63 -0.55,1.63 0.08,2.22z"/>
   <path class="fil0" d="M41.16 36.58l3.22 -12.02c0.15,-0.57 0.74,-0.9 1.3,-0.75l0 0c0.56,0.15 0.9,0.73 0.75,1.3l-3.22 12.02c-0.15,0.57 -0.73,0.9 -1.3,0.75l-0 -0c-0.56,-0.15 -0.9,-0.73 -0.75,-1.3z"/>
   <path class="fil0" d="M54.7 32.13l-5.65 4.54c-0.45,0.36 -1.11,0.27 -1.52,-0.14l-0 -0c-0.38,-0.45 -0.31,-1.11 0.14,-1.47l5.33 -4.28 -5.33 -4.28c-0.46,-0.37 -0.52,-1.03 -0.14,-1.47l0 -0c0.41,-0.41 1.06,-0.51 1.52,-0.14l5.65 4.54c1.43,1.14 1.38,1.62 0,2.73z"/>
   <path class="fil0" d="M32.89 32.13l5.65 4.54c0.45,0.36 1.11,0.27 1.52,-0.14l0 -0c0.38,-0.45 0.31,-1.11 -0.14,-1.47l-5.33 -4.28 5.33 -4.28c0.46,-0.37 0.52,-1.03 0.14,-1.47l-0 -0c-0.41,-0.41 -1.06,-0.51 -1.52,-0.14l-5.65 4.54c-1.43,1.14 -1.38,1.62 0,2.73z"/>
   <path class="fil1" d="M4.52 86.22l5.92 0 0 3.49 -10.43 0 0 -18.54 4.52 0 0 15.06zm12.52 -15.06l0 11.09c0,1.11 0.27,1.96 0.82,2.56 0.55,0.6 1.35,0.9 2.4,0.9 1.06,0 1.87,-0.3 2.43,-0.9 0.56,-0.6 0.85,-1.45 0.85,-2.56l0 -11.09 4.52 0 0 11.07c0,1.65 -0.35,3.06 -1.06,4.2 -0.7,1.14 -1.65,2.01 -2.84,2.59 -1.19,0.58 -2.51,0.87 -3.98,0.87 -1.46,0 -2.77,-0.29 -3.92,-0.86 -1.15,-0.57 -2.07,-1.43 -2.73,-2.59 -0.67,-1.15 -1,-2.56 -1,-4.21l0 -11.07 4.52 0zm35.18 0l0 18.54 -4.52 0 0 -11.12 -4.15 11.12 -3.65 0 -4.17 -11.15 0 11.15 -4.52 0 0 -18.54 5.34 0 5.2 12.84 5.15 -12.84 5.31 0zm7.77 3.62l0 3.75 6.05 0 0 3.49 -6.05 0 0 4.07 6.84 0 0 3.62 -11.36 0 0 -18.54 11.36 0 0 3.62 -6.84 0zm21.32 11.65l-6.92 0 -1.11 3.28 -4.73 0 6.71 -18.54 5.23 0 6.71 18.54 -4.78 0 -1.11 -3.28zm-1.16 -3.49l-2.3 -6.79 -2.27 6.79 4.57 0z"/>
   <path class="fil1" d="M21.68 105.86c-0.73,0 -1.38,-0.12 -1.96,-0.35 -0.57,-0.24 -1.04,-0.58 -1.38,-1.05 -0.34,-0.46 -0.53,-1.02 -0.55,-1.67l2.58 0c0.04,0.37 0.17,0.65 0.38,0.84 0.22,0.19 0.5,0.29 0.85,0.29 0.36,0 0.64,-0.08 0.85,-0.25 0.21,-0.17 0.31,-0.39 0.31,-0.69 0,-0.24 -0.08,-0.45 -0.25,-0.61 -0.16,-0.16 -0.37,-0.29 -0.61,-0.4 -0.24,-0.1 -0.58,-0.22 -1.03,-0.35 -0.64,-0.2 -1.17,-0.4 -1.57,-0.6 -0.41,-0.2 -0.76,-0.49 -1.05,-0.88 -0.29,-0.39 -0.44,-0.89 -0.44,-1.52 0,-0.93 0.34,-1.65 1,-2.17 0.67,-0.52 1.54,-0.79 2.62,-0.79 1.1,0 1.98,0.26 2.65,0.79 0.67,0.52 1.03,1.25 1.08,2.19l-2.62 0c-0.02,-0.32 -0.14,-0.57 -0.35,-0.76 -0.22,-0.18 -0.5,-0.28 -0.84,-0.28 -0.29,0 -0.53,0.08 -0.71,0.23 -0.18,0.16 -0.27,0.38 -0.27,0.67 0,0.32 0.15,0.57 0.45,0.75 0.3,0.18 0.77,0.37 1.42,0.58 0.64,0.22 1.16,0.42 1.57,0.62 0.4,0.2 0.75,0.49 1.04,0.86 0.29,0.38 0.44,0.86 0.44,1.46 0,0.57 -0.14,1.08 -0.43,1.54 -0.29,0.46 -0.71,0.83 -1.25,1.1 -0.55,0.27 -1.19,0.41 -1.94,0.41zm12.26 -10.04l0 1.94 -2.63 0 0 8 -2.42 0 0 -8 -2.63 0 0 -1.94 7.69 0zm3.6 0l0 5.95c0,0.6 0.15,1.05 0.44,1.37 0.29,0.32 0.72,0.48 1.29,0.48 0.57,0 1,-0.16 1.3,-0.48 0.3,-0.32 0.45,-0.78 0.45,-1.37l0 -5.95 2.42 0 0 5.93c0,0.89 -0.19,1.64 -0.57,2.25 -0.38,0.61 -0.88,1.08 -1.52,1.39 -0.64,0.31 -1.35,0.47 -2.13,0.47 -0.78,0 -1.48,-0.15 -2.1,-0.46 -0.62,-0.31 -1.11,-0.77 -1.47,-1.39 -0.36,-0.62 -0.54,-1.37 -0.54,-2.26l0 -5.93 2.42 0zm11.33 0c1.05,0 1.96,0.21 2.75,0.62 0.78,0.41 1.39,1 1.82,1.75 0.43,0.75 0.64,1.62 0.64,2.6 0,0.97 -0.21,1.84 -0.64,2.59 -0.43,0.76 -1.04,1.34 -1.83,1.76 -0.79,0.41 -1.7,0.62 -2.74,0.62l-3.72 0 0 -9.94 3.72 0zm-0.16 7.85c0.92,0 1.63,-0.25 2.14,-0.75 0.51,-0.5 0.76,-1.21 0.76,-2.12 0,-0.92 -0.25,-1.63 -0.76,-2.14 -0.51,-0.51 -1.22,-0.76 -2.14,-0.76l-1.15 0 0 5.78 1.15 0zm9.15 -7.85l0 9.94 -2.42 0 0 -9.94 2.42 0zm6.46 10.04c-0.94,0 -1.79,-0.22 -2.57,-0.65 -0.78,-0.43 -1.4,-1.04 -1.86,-1.82 -0.46,-0.78 -0.69,-1.65 -0.69,-2.63 0,-0.97 0.23,-1.85 0.69,-2.62 0.46,-0.77 1.08,-1.38 1.86,-1.81 0.78,-0.43 1.63,-0.65 2.57,-0.65 0.93,0 1.79,0.22 2.57,0.65 0.78,0.43 1.39,1.04 1.84,1.81 0.45,0.77 0.67,1.65 0.67,2.62 0,0.97 -0.23,1.85 -0.68,2.63 -0.45,0.78 -1.07,1.39 -1.84,1.82 -0.77,0.43 -1.63,0.65 -2.56,0.65zm0 -2.21c0.79,0 1.43,-0.27 1.9,-0.79 0.48,-0.53 0.72,-1.23 0.72,-2.1 0,-0.88 -0.24,-1.58 -0.72,-2.1 -0.48,-0.52 -1.11,-0.78 -1.9,-0.78 -0.8,0 -1.44,0.26 -1.92,0.78 -0.48,0.52 -0.72,1.22 -0.72,2.11 0,0.88 0.24,1.58 0.72,2.1 0.48,0.52 1.12,0.79 1.92,0.79z"/>
  </g>
 </g>
</svg>
